<svg width="366" height="317" viewBox="0 0 366 317" fill="none" xmlns="http://www.w3.org/2000/svg">
<g clip-path="url(#clip0_461_3465)">
<rect width="366" height="317" fill="white"/>
<rect width="360.455" height="679.22" transform="translate(183 -361.902)" fill="url(#paint0_linear_461_3465)"/>
<mask id="path-1-inside-1_461_3465" fill="white">
<path d="M183 -318.47H243.496V273.886H183V-318.47Z"/>
</mask>
<path d="M183 -318.47H243.496V273.886H183V-318.47Z" fill="url(#paint1_linear_461_3465)"/>
<path d="M183 -318.47H243.496V273.886H183V-318.47Z" fill="url(#paint2_linear_461_3465)" fill-opacity="0.2"/>
<path d="M243.496 -318.47H242.236V273.886H243.496H244.756V-318.47H243.496Z" fill="white" fill-opacity="0.83" mask="url(#path-1-inside-1_461_3465)"/>
<mask id="path-3-inside-2_461_3465" fill="white">
<path d="M243.496 -318.47H303.992V273.886H243.496V-318.47Z"/>
</mask>
<path d="M243.496 -318.47H303.992V273.886H243.496V-318.47Z" fill="url(#paint3_linear_461_3465)"/>
<path d="M243.496 -318.47H303.992V273.886H243.496V-318.47Z" fill="url(#paint4_linear_461_3465)" fill-opacity="0.2"/>
<path d="M303.992 -318.47H302.732V273.886H303.992H305.252V-318.47H303.992Z" fill="white" fill-opacity="0.83" mask="url(#path-3-inside-2_461_3465)"/>
<mask id="path-5-inside-3_461_3465" fill="white">
<path d="M303.991 -318.47H364.487V273.886H303.991V-318.47Z"/>
</mask>
<path d="M303.991 -318.47H364.487V273.886H303.991V-318.47Z" fill="url(#paint5_linear_461_3465)"/>
<path d="M303.991 -318.47H364.487V273.886H303.991V-318.47Z" fill="url(#paint6_linear_461_3465)" fill-opacity="0.2"/>
<path d="M364.487 -318.47H363.227V273.886H364.487H365.747V-318.47H364.487Z" fill="white" fill-opacity="0.83" mask="url(#path-5-inside-3_461_3465)"/>
<mask id="path-7-inside-4_461_3465" fill="white">
<path d="M364.487 -318.47H424.983V273.886H364.487V-318.47Z"/>
</mask>
<path d="M364.487 -318.47H424.983V273.886H364.487V-318.47Z" fill="url(#paint7_linear_461_3465)"/>
<path d="M364.487 -318.47H424.983V273.886H364.487V-318.47Z" fill="url(#paint8_linear_461_3465)" fill-opacity="0.2"/>
<path d="M424.983 -318.47H423.723V273.886H424.983H426.244V-318.47H424.983Z" fill="white" fill-opacity="0.83" mask="url(#path-7-inside-4_461_3465)"/>
<rect width="247.025" height="582.273" transform="translate(298.95 -336.793)" fill="url(#paint9_linear_461_3465)"/>
<rect width="360.455" height="679.22" transform="matrix(-1 0 0 1 181.975 -361.902)" fill="url(#paint10_linear_461_3465)"/>
<mask id="path-9-inside-5_461_3465" fill="white">
<path d="M181.975 -318.47H121.479V273.886H181.975V-318.47Z"/>
</mask>
<path d="M181.975 -318.47H121.479V273.886H181.975V-318.47Z" fill="url(#paint11_linear_461_3465)"/>
<path d="M181.975 -318.47H121.479V273.886H181.975V-318.47Z" fill="url(#paint12_linear_461_3465)" fill-opacity="0.2"/>
<path d="M121.479 -318.47H122.739V273.886H121.479H120.218V-318.47H121.479Z" fill="white" fill-opacity="0.83" mask="url(#path-9-inside-5_461_3465)"/>
<mask id="path-11-inside-6_461_3465" fill="white">
<path d="M121.479 -318.47H60.9826V273.886H121.479V-318.47Z"/>
</mask>
<path d="M121.479 -318.47H60.9826V273.886H121.479V-318.47Z" fill="url(#paint13_linear_461_3465)"/>
<path d="M121.479 -318.47H60.9826V273.886H121.479V-318.47Z" fill="url(#paint14_linear_461_3465)" fill-opacity="0.2"/>
<path d="M60.9826 -318.47H62.243V273.886H60.9826H59.7223V-318.47H60.9826Z" fill="white" fill-opacity="0.83" mask="url(#path-11-inside-6_461_3465)"/>
<mask id="path-13-inside-7_461_3465" fill="white">
<path d="M60.9834 -318.47H0.48753V273.886H60.9834V-318.47Z"/>
</mask>
<path d="M60.9834 -318.47H0.48753V273.886H60.9834V-318.47Z" fill="url(#paint15_linear_461_3465)"/>
<path d="M60.9834 -318.47H0.48753V273.886H60.9834V-318.47Z" fill="url(#paint16_linear_461_3465)" fill-opacity="0.2"/>
<path d="M0.48753 -318.47H1.74786V273.886H0.48753H-0.7728V-318.47H0.48753Z" fill="white" fill-opacity="0.83" mask="url(#path-13-inside-7_461_3465)"/>
<mask id="path-15-inside-8_461_3465" fill="white">
<path d="M0.487305 -318.47H-60.0086V273.886H0.487305V-318.47Z"/>
</mask>
<path d="M0.487305 -318.47H-60.0086V273.886H0.487305V-318.47Z" fill="url(#paint17_linear_461_3465)"/>
<path d="M0.487305 -318.47H-60.0086V273.886H0.487305V-318.47Z" fill="url(#paint18_linear_461_3465)" fill-opacity="0.2"/>
<path d="M-60.0086 -318.47H-58.7482V273.886H-60.0086H-61.2689V-318.47H-60.0086Z" fill="white" fill-opacity="0.83" mask="url(#path-15-inside-8_461_3465)"/>
<rect width="247.025" height="582.273" transform="matrix(-1 0 0 1 66.0244 -336.793)" fill="url(#paint19_linear_461_3465)"/>
<rect width="366" height="317" fill="url(#paint20_linear_461_3465)"/>
</g>
<defs>
<linearGradient id="paint0_linear_461_3465" x1="302.882" y1="340.35" x2="0.00961037" y2="338.233" gradientUnits="userSpaceOnUse">
<stop stop-color="white"/>
<stop offset="1" stop-color="white" stop-opacity="0"/>
</linearGradient>
<linearGradient id="paint1_linear_461_3465" x1="213.248" y1="-318.47" x2="213.248" y2="273.886" gradientUnits="userSpaceOnUse">
<stop stop-color="white"/>
<stop offset="0.485577" stop-color="#C7E4FF"/>
<stop offset="1" stop-color="white"/>
</linearGradient>
<linearGradient id="paint2_linear_461_3465" x1="243.496" y1="-22.2921" x2="186.781" y2="-22.2921" gradientUnits="userSpaceOnUse">
<stop stop-color="#E3F1FF"/>
<stop offset="1" stop-color="white"/>
</linearGradient>
<linearGradient id="paint3_linear_461_3465" x1="273.744" y1="-318.47" x2="273.744" y2="273.886" gradientUnits="userSpaceOnUse">
<stop offset="0.0240385" stop-color="white"/>
<stop offset="0.485577" stop-color="#C7E4FF"/>
<stop offset="0.971154" stop-color="white"/>
</linearGradient>
<linearGradient id="paint4_linear_461_3465" x1="303.992" y1="-22.2921" x2="247.277" y2="-22.2921" gradientUnits="userSpaceOnUse">
<stop stop-color="#E3F1FF"/>
<stop offset="1" stop-color="white"/>
</linearGradient>
<linearGradient id="paint5_linear_461_3465" x1="334.239" y1="-318.47" x2="334.239" y2="273.886" gradientUnits="userSpaceOnUse">
<stop stop-color="white"/>
<stop offset="0.485577" stop-color="#C7E4FF"/>
<stop offset="0.985577" stop-color="white"/>
</linearGradient>
<linearGradient id="paint6_linear_461_3465" x1="364.487" y1="-22.2921" x2="307.772" y2="-22.2921" gradientUnits="userSpaceOnUse">
<stop stop-color="#E3F1FF"/>
<stop offset="1" stop-color="white"/>
</linearGradient>
<linearGradient id="paint7_linear_461_3465" x1="394.735" y1="-318.47" x2="394.735" y2="273.886" gradientUnits="userSpaceOnUse">
<stop offset="0.0240385" stop-color="white"/>
<stop offset="0.485577" stop-color="#C7E4FF"/>
<stop offset="1" stop-color="white"/>
</linearGradient>
<linearGradient id="paint8_linear_461_3465" x1="424.983" y1="-22.2921" x2="368.268" y2="-22.2921" gradientUnits="userSpaceOnUse">
<stop stop-color="#E3F1FF"/>
<stop offset="1" stop-color="white"/>
</linearGradient>
<linearGradient id="paint9_linear_461_3465" x1="247.025" y1="291.136" x2="0" y2="291.136" gradientUnits="userSpaceOnUse">
<stop stop-color="#F8FBFF"/>
<stop offset="1" stop-color="white" stop-opacity="0"/>
</linearGradient>
<linearGradient id="paint10_linear_461_3465" x1="302.882" y1="340.35" x2="0.00961037" y2="338.233" gradientUnits="userSpaceOnUse">
<stop stop-color="white"/>
<stop offset="1" stop-color="white" stop-opacity="0"/>
</linearGradient>
<linearGradient id="paint11_linear_461_3465" x1="151.727" y1="-318.47" x2="151.727" y2="273.886" gradientUnits="userSpaceOnUse">
<stop stop-color="white"/>
<stop offset="0.485577" stop-color="#C7E4FF"/>
<stop offset="1" stop-color="white"/>
</linearGradient>
<linearGradient id="paint12_linear_461_3465" x1="121.479" y1="-22.2921" x2="178.194" y2="-22.2921" gradientUnits="userSpaceOnUse">
<stop stop-color="#E3F1FF"/>
<stop offset="1" stop-color="white"/>
</linearGradient>
<linearGradient id="paint13_linear_461_3465" x1="91.2306" y1="-318.47" x2="91.2306" y2="273.886" gradientUnits="userSpaceOnUse">
<stop offset="0.0240385" stop-color="white"/>
<stop offset="0.485577" stop-color="#C7E4FF"/>
<stop offset="0.971154" stop-color="white"/>
</linearGradient>
<linearGradient id="paint14_linear_461_3465" x1="60.9826" y1="-22.2921" x2="117.698" y2="-22.2921" gradientUnits="userSpaceOnUse">
<stop stop-color="#E3F1FF"/>
<stop offset="1" stop-color="white"/>
</linearGradient>
<linearGradient id="paint15_linear_461_3465" x1="30.7355" y1="-318.47" x2="30.7355" y2="273.886" gradientUnits="userSpaceOnUse">
<stop stop-color="white"/>
<stop offset="0.485577" stop-color="#C7E4FF"/>
<stop offset="0.985577" stop-color="white"/>
</linearGradient>
<linearGradient id="paint16_linear_461_3465" x1="0.48753" y1="-22.2921" x2="57.2024" y2="-22.2921" gradientUnits="userSpaceOnUse">
<stop stop-color="#E3F1FF"/>
<stop offset="1" stop-color="white"/>
</linearGradient>
<linearGradient id="paint17_linear_461_3465" x1="-29.7606" y1="-318.47" x2="-29.7606" y2="273.886" gradientUnits="userSpaceOnUse">
<stop offset="0.0240385" stop-color="white"/>
<stop offset="0.485577" stop-color="#C7E4FF"/>
<stop offset="1" stop-color="white"/>
</linearGradient>
<linearGradient id="paint18_linear_461_3465" x1="-60.0086" y1="-22.2921" x2="-3.29369" y2="-22.2921" gradientUnits="userSpaceOnUse">
<stop stop-color="#E3F1FF"/>
<stop offset="1" stop-color="white"/>
</linearGradient>
<linearGradient id="paint19_linear_461_3465" x1="247.025" y1="291.136" x2="0" y2="291.136" gradientUnits="userSpaceOnUse">
<stop stop-color="#F8FBFF"/>
<stop offset="1" stop-color="white" stop-opacity="0"/>
</linearGradient>
<linearGradient id="paint20_linear_461_3465" x1="183" y1="0" x2="183" y2="317" gradientUnits="userSpaceOnUse">
<stop stop-color="#FFF6F0" stop-opacity="0"/>
<stop offset="1" stop-color="#FBFEFF"/>
</linearGradient>
<clipPath id="clip0_461_3465">
<rect width="366" height="317" fill="white"/>
</clipPath>
</defs>
</svg>
