<svg width="310" height="370" viewBox="0 0 310 370" fill="none" xmlns="http://www.w3.org/2000/svg">
<rect width="360.455" height="679.22" transform="translate(162 -309.902)" fill="url(#paint0_linear_317_12699)"/>
<mask id="path-1-inside-1_317_12699" fill="white">
<path d="M162 -266.471H222.496V325.885H162V-266.471Z"/>
</mask>
<path d="M162 -266.471H222.496V325.885H162V-266.471Z" fill="url(#paint1_linear_317_12699)"/>
<path d="M222.496 -266.471H221.236V325.885H222.496H223.756V-266.471H222.496Z" fill="white" fill-opacity="0.83" mask="url(#path-1-inside-1_317_12699)"/>
<mask id="path-3-inside-2_317_12699" fill="white">
<path d="M222.496 -266.471H282.992V325.885H222.496V-266.471Z"/>
</mask>
<path d="M222.496 -266.471H282.992V325.885H222.496V-266.471Z" fill="url(#paint2_linear_317_12699)"/>
<path d="M282.992 -266.471H281.732V325.885H282.992H284.252V-266.471H282.992Z" fill="white" fill-opacity="0.83" mask="url(#path-3-inside-2_317_12699)"/>
<mask id="path-5-inside-3_317_12699" fill="white">
<path d="M282.992 -266.471H343.488V325.885H282.992V-266.471Z"/>
</mask>
<path d="M282.992 -266.471H343.488V325.885H282.992V-266.471Z" fill="url(#paint3_linear_317_12699)"/>
<path d="M282.992 -266.471H343.488V325.885H282.992V-266.471Z" fill="url(#paint4_linear_317_12699)" fill-opacity="0.2"/>
<path d="M343.488 -266.471H342.227V325.885H343.488H344.748V-266.471H343.488Z" fill="white" fill-opacity="0.83" mask="url(#path-5-inside-3_317_12699)"/>
<rect width="247.025" height="582.273" transform="translate(283 -285)" fill="url(#paint5_linear_317_12699)"/>
<rect width="360.455" height="679.22" transform="matrix(-1 0 0 1 160.975 -309.902)" fill="url(#paint6_linear_317_12699)"/>
<mask id="path-7-inside-4_317_12699" fill="white">
<path d="M160.975 -266.471H100.479V325.885H160.975V-266.471Z"/>
</mask>
<path d="M160.975 -266.471H100.479V325.885H160.975V-266.471Z" fill="url(#paint7_linear_317_12699)"/>
<path d="M100.479 -266.471H101.739V325.885H100.479H99.2184V-266.471H100.479Z" fill="white" fill-opacity="0.83" mask="url(#path-7-inside-4_317_12699)"/>
<mask id="path-9-inside-5_317_12699" fill="white">
<path d="M100.479 -266.471H39.9826V325.885H100.479V-266.471Z"/>
</mask>
<path d="M100.479 -266.471H39.9826V325.885H100.479V-266.471Z" fill="url(#paint8_linear_317_12699)"/>
<path d="M39.9826 -266.471H41.243V325.885H39.9826H38.7223V-266.471H39.9826Z" fill="white" fill-opacity="0.83" mask="url(#path-9-inside-5_317_12699)"/>
<mask id="path-11-inside-6_317_12699" fill="white">
<path d="M39.9829 -266.471H-20.513V325.885H39.9829V-266.471Z"/>
</mask>
<path d="M39.9829 -266.471H-20.513V325.885H39.9829V-266.471Z" fill="url(#paint9_linear_317_12699)"/>
<path d="M39.9829 -266.471H-20.513V325.885H39.9829V-266.471Z" fill="url(#paint10_linear_317_12699)" fill-opacity="0.2"/>
<path d="M-20.513 -266.471H-19.2526V325.885H-20.513H-21.7733V-266.471H-20.513Z" fill="white" fill-opacity="0.83" mask="url(#path-11-inside-6_317_12699)"/>
<defs>
<linearGradient id="paint0_linear_317_12699" x1="302.882" y1="340.35" x2="0.00961037" y2="338.233" gradientUnits="userSpaceOnUse">
<stop stop-color="white"/>
<stop offset="1" stop-color="white" stop-opacity="0"/>
</linearGradient>
<linearGradient id="paint1_linear_317_12699" x1="192.248" y1="-266.471" x2="192.248" y2="325.885" gradientUnits="userSpaceOnUse">
<stop stop-color="white"/>
<stop offset="0.485577" stop-color="#C7E4FF"/>
<stop offset="1" stop-color="white"/>
</linearGradient>
<linearGradient id="paint2_linear_317_12699" x1="252.744" y1="-266.471" x2="252.744" y2="325.885" gradientUnits="userSpaceOnUse">
<stop offset="0.0240385" stop-color="white"/>
<stop offset="0.485577" stop-color="#C7E4FF"/>
<stop offset="0.971154" stop-color="white"/>
</linearGradient>
<linearGradient id="paint3_linear_317_12699" x1="313.24" y1="-266.471" x2="313.24" y2="325.885" gradientUnits="userSpaceOnUse">
<stop stop-color="white"/>
<stop offset="0.485577" stop-color="#C7E4FF"/>
<stop offset="0.985577" stop-color="white"/>
</linearGradient>
<linearGradient id="paint4_linear_317_12699" x1="343.488" y1="29.707" x2="286.773" y2="29.707" gradientUnits="userSpaceOnUse">
<stop stop-color="#E3F1FF"/>
<stop offset="1" stop-color="white"/>
</linearGradient>
<linearGradient id="paint5_linear_317_12699" x1="247.025" y1="291.136" x2="0" y2="291.136" gradientUnits="userSpaceOnUse">
<stop stop-color="#F8FBFF"/>
<stop offset="1" stop-color="white" stop-opacity="0"/>
</linearGradient>
<linearGradient id="paint6_linear_317_12699" x1="302.882" y1="340.35" x2="0.00961037" y2="338.233" gradientUnits="userSpaceOnUse">
<stop stop-color="white"/>
<stop offset="1" stop-color="white" stop-opacity="0"/>
</linearGradient>
<linearGradient id="paint7_linear_317_12699" x1="130.727" y1="-266.471" x2="130.727" y2="325.885" gradientUnits="userSpaceOnUse">
<stop stop-color="white"/>
<stop offset="0.485577" stop-color="#C7E4FF"/>
<stop offset="1" stop-color="white"/>
</linearGradient>
<linearGradient id="paint8_linear_317_12699" x1="70.2306" y1="-266.471" x2="70.2306" y2="325.885" gradientUnits="userSpaceOnUse">
<stop offset="0.0240385" stop-color="white"/>
<stop offset="0.485577" stop-color="#C7E4FF"/>
<stop offset="0.971154" stop-color="white"/>
</linearGradient>
<linearGradient id="paint9_linear_317_12699" x1="9.73497" y1="-266.471" x2="9.73497" y2="325.885" gradientUnits="userSpaceOnUse">
<stop stop-color="white"/>
<stop offset="0.485577" stop-color="#C7E4FF"/>
<stop offset="0.985577" stop-color="white"/>
</linearGradient>
<linearGradient id="paint10_linear_317_12699" x1="-20.513" y1="29.707" x2="36.2019" y2="29.707" gradientUnits="userSpaceOnUse">
<stop stop-color="#E3F1FF"/>
<stop offset="1" stop-color="white"/>
</linearGradient>
</defs>
</svg>
