<svg width="310" height="279" viewBox="0 0 310 279" fill="none" xmlns="http://www.w3.org/2000/svg">
<rect width="360.455" height="679.22" transform="translate(162 -400.902)" fill="url(#paint0_linear_399_4526)"/>
<mask id="path-1-inside-1_399_4526" fill="white">
<path d="M162 -273.793H222V151.207H162V-273.793Z"/>
</mask>
<path d="M162 -273.793H222V151.207H162V-273.793Z" fill="url(#paint1_linear_399_4526)"/>
<path d="M222 -273.793H220.74V151.207H222H223.26V-273.793H222Z" fill="white" fill-opacity="0.83" mask="url(#path-1-inside-1_399_4526)"/>
<mask id="path-3-inside-2_399_4526" fill="white">
<path d="M222 -273.793H282V151.207H222V-273.793Z"/>
</mask>
<path d="M222 -273.793H282V151.207H222V-273.793Z" fill="url(#paint2_linear_399_4526)"/>
<path d="M282 -273.793H280.74V151.207H282H283.26V-273.793H282Z" fill="white" fill-opacity="0.83" mask="url(#path-3-inside-2_399_4526)"/>
<mask id="path-5-inside-3_399_4526" fill="white">
<path d="M282 -262.793H342V140.207H282V-262.793Z"/>
</mask>
<path d="M282 -262.793H342V140.207H282V-262.793Z" fill="url(#paint3_linear_399_4526)"/>
<path d="M282 -262.793H342V140.207H282V-262.793Z" fill="url(#paint4_linear_399_4526)" fill-opacity="0.2"/>
<path d="M342 -262.793H340.74V140.207H342H343.26V-262.793H342Z" fill="white" fill-opacity="0.83" mask="url(#path-5-inside-3_399_4526)"/>
<mask id="path-7-inside-4_399_4526" fill="white">
<path d="M283 -376H530V152H283V-376Z"/>
</mask>
<path d="M283 -376H530V152H283V-376Z" fill="url(#paint5_linear_399_4526)"/>
<path d="M530 -376H528.74V152H530H531.26V-376H530Z" fill="white" fill-opacity="0.83" mask="url(#path-7-inside-4_399_4526)"/>
<rect width="360.455" height="679.22" transform="matrix(-1 0 0 1 160.974 -400.902)" fill="url(#paint6_linear_399_4526)"/>
<mask id="path-9-inside-5_399_4526" fill="white">
<path d="M160.974 -283.793H99.9745V161.207H160.974V-283.793Z"/>
</mask>
<path d="M160.974 -283.793H99.9745V161.207H160.974V-283.793Z" fill="url(#paint7_linear_399_4526)"/>
<path d="M99.9745 -283.793H101.235V161.207H99.9745H98.7142V-283.793H99.9745Z" fill="white" fill-opacity="0.83" mask="url(#path-9-inside-5_399_4526)"/>
<mask id="path-11-inside-6_399_4526" fill="white">
<path d="M99.9745 -283.793H39.9745V161.207H99.9745V-283.793Z"/>
</mask>
<path d="M99.9745 -283.793H39.9745V161.207H99.9745V-283.793Z" fill="url(#paint8_linear_399_4526)"/>
<path d="M39.9745 -283.793H41.2348V161.207H39.9745H38.7142V-283.793H39.9745Z" fill="white" fill-opacity="0.83" mask="url(#path-11-inside-6_399_4526)"/>
<mask id="path-13-inside-7_399_4526" fill="white">
<path d="M39.9745 -283.793H-21.0255V161.207H39.9745V-283.793Z"/>
</mask>
<path d="M39.9745 -283.793H-21.0255V161.207H39.9745V-283.793Z" fill="url(#paint9_linear_399_4526)"/>
<path d="M-21.0255 -283.793H-19.7652V161.207H-21.0255H-22.2858V-283.793H-21.0255Z" fill="white" fill-opacity="0.83" mask="url(#path-13-inside-7_399_4526)"/>
<defs>
<linearGradient id="paint0_linear_399_4526" x1="302.882" y1="340.35" x2="0.00961037" y2="338.233" gradientUnits="userSpaceOnUse">
<stop stop-color="white"/>
<stop offset="1" stop-color="white" stop-opacity="0"/>
</linearGradient>
<linearGradient id="paint1_linear_399_4526" x1="192" y1="-273.793" x2="192" y2="151.207" gradientUnits="userSpaceOnUse">
<stop stop-color="white"/>
<stop offset="0.485577" stop-color="#D2C3F9"/>
<stop offset="1" stop-color="white"/>
</linearGradient>
<linearGradient id="paint2_linear_399_4526" x1="252" y1="-273.793" x2="252" y2="151.207" gradientUnits="userSpaceOnUse">
<stop stop-color="white"/>
<stop offset="0.485577" stop-color="#D2C3F9"/>
<stop offset="1" stop-color="white"/>
</linearGradient>
<linearGradient id="paint3_linear_399_4526" x1="312" y1="-262.793" x2="312" y2="140.207" gradientUnits="userSpaceOnUse">
<stop stop-color="white"/>
<stop offset="0.485577" stop-color="#C7E4FF"/>
<stop offset="0.985577" stop-color="white"/>
</linearGradient>
<linearGradient id="paint4_linear_399_4526" x1="342" y1="-61.293" x2="285.75" y2="-61.293" gradientUnits="userSpaceOnUse">
<stop stop-color="#E3F1FF"/>
<stop offset="1" stop-color="white"/>
</linearGradient>
<linearGradient id="paint5_linear_399_4526" x1="406.5" y1="-376" x2="406.5" y2="152" gradientUnits="userSpaceOnUse">
<stop stop-color="white"/>
<stop offset="0.485577" stop-color="#D2C3F9"/>
<stop offset="1" stop-color="white"/>
</linearGradient>
<linearGradient id="paint6_linear_399_4526" x1="302.882" y1="340.35" x2="0.00961037" y2="338.233" gradientUnits="userSpaceOnUse">
<stop stop-color="white"/>
<stop offset="1" stop-color="white" stop-opacity="0"/>
</linearGradient>
<linearGradient id="paint7_linear_399_4526" x1="130.474" y1="-283.793" x2="130.474" y2="161.207" gradientUnits="userSpaceOnUse">
<stop stop-color="white"/>
<stop offset="0.485577" stop-color="#D2C3F9"/>
<stop offset="1" stop-color="white"/>
</linearGradient>
<linearGradient id="paint8_linear_399_4526" x1="69.9745" y1="-283.793" x2="69.9745" y2="161.207" gradientUnits="userSpaceOnUse">
<stop stop-color="white"/>
<stop offset="0.485577" stop-color="#D2C3F9"/>
<stop offset="1" stop-color="white"/>
</linearGradient>
<linearGradient id="paint9_linear_399_4526" x1="9.47448" y1="-283.793" x2="9.47448" y2="161.207" gradientUnits="userSpaceOnUse">
<stop stop-color="white"/>
<stop offset="0.485577" stop-color="#D2C3F9"/>
<stop offset="1" stop-color="white"/>
</linearGradient>
</defs>
</svg>
