<svg width="16" height="16" viewBox="0 0 16 16" fill="none" xmlns="http://www.w3.org/2000/svg">
<path d="M3.54782 6.45524C5.15693 3.60795 5.96149 2.1843 7.06552 1.81783C7.67289 1.61622 8.32714 1.61622 8.93451 1.81783C10.0385 2.1843 10.8431 3.60795 12.4522 6.45524C14.0613 9.30254 14.8659 10.7262 14.6245 11.8862C14.4918 12.5244 14.1646 13.1032 13.69 13.5398C12.8274 14.3333 11.2182 14.3333 8.00001 14.3333C4.78178 14.3333 3.17266 14.3333 2.30999 13.5398C1.8354 13.1032 1.50827 12.5244 1.37549 11.8862C1.13414 10.7262 1.9387 9.30254 3.54782 6.45524Z" fill="#FBBF24"/>
<path d="M7.99465 10.6666H8.00064" stroke="white" stroke-width="2" stroke-linecap="round" stroke-linejoin="round"/>
<path d="M8 8.66663L8 5.99996" stroke="white" stroke-linecap="round" stroke-linejoin="round"/>
</svg>
