<svg width="21" height="21" viewBox="0 0 21 21" fill="none" xmlns="http://www.w3.org/2000/svg">
<path d="M19.9877 9.74966C19.9866 8.75874 19.5925 7.80872 18.8918 7.10804C18.1912 6.40735 17.2411 6.01324 16.2502 6.01216H13.0124C12.8028 5.99997 8.61678 5.7221 4.63147 2.37947C4.46568 2.24033 4.26363 2.15138 4.04905 2.12306C3.83447 2.09474 3.61626 2.12823 3.42005 2.2196C3.22383 2.31096 3.05776 2.45642 2.94133 2.63887C2.8249 2.82133 2.76293 3.03322 2.76272 3.24966V16.2497C2.76126 16.4663 2.82235 16.6787 2.93866 16.8615C3.05496 17.0442 3.22155 17.1895 3.41841 17.2799C3.56936 17.3501 3.73375 17.3867 3.90022 17.3872C4.16805 17.3873 4.42723 17.2923 4.63147 17.119C7.88147 14.3955 11.259 13.7065 12.5127 13.5383V16.3008C12.5127 16.4881 12.5588 16.6725 12.6471 16.8376C12.7354 17.0027 12.8631 17.1435 13.0189 17.2474L13.9127 17.843C14.0638 17.9436 14.2369 18.0067 14.4174 18.0267C14.5979 18.0468 14.7806 18.0234 14.9502 17.9584C15.1198 17.8934 15.2714 17.7887 15.3922 17.6532C15.5131 17.5176 15.5997 17.3551 15.6449 17.1792L16.6305 13.4652C17.5502 13.3699 18.402 12.9376 19.0219 12.2515C19.6418 11.5655 19.9858 10.6743 19.9877 9.74966ZM4.00503 16.3732C3.98141 16.3931 3.95259 16.4059 3.92195 16.41C3.89131 16.4142 3.86013 16.4095 3.83207 16.3965C3.804 16.3835 3.78022 16.3628 3.76351 16.3368C3.7468 16.3108 3.73785 16.2806 3.73772 16.2497V3.24966C3.73684 3.21873 3.74528 3.18824 3.76194 3.16216C3.7786 3.13608 3.80272 3.11561 3.83116 3.10341C3.85277 3.09317 3.87631 3.08763 3.90022 3.08716C3.93795 3.08728 3.97435 3.10115 4.0026 3.12616C7.5776 6.12591 11.2338 6.79785 12.5103 6.94491V12.5512C11.2363 12.7015 7.58085 13.3742 4.00503 16.3732ZM14.7008 16.9419C14.6945 16.9672 14.6822 16.9906 14.665 17.0101C14.6477 17.0296 14.626 17.0447 14.6017 17.0541C14.5775 17.0635 14.5513 17.067 14.5254 17.0641C14.4995 17.0613 14.4746 17.0522 14.453 17.0378L13.5592 16.4422C13.5369 16.4273 13.5186 16.4071 13.506 16.3835C13.4934 16.3598 13.4868 16.3334 13.4869 16.3065V13.4872H15.6157L14.7008 16.9419ZM16.2502 12.5122H13.4877V6.98716H16.2502C16.9829 6.98716 17.6855 7.27821 18.2036 7.79628C18.7217 8.31435 19.0127 9.017 19.0127 9.74966C19.0127 10.4823 18.7217 11.185 18.2036 11.703C17.6855 12.2211 16.9829 12.5122 16.2502 12.5122Z" fill="#343330"/>
</svg>
